<svg width="59" height="58" viewBox="0 0 59 58" fill="none" xmlns="http://www.w3.org/2000/svg">
<rect width="58.2864" height="58" rx="4" fill="#FACFCA"/>
<g clip-path="url(#clip0_3_4669)">
<g filter="url(#filter0_d_3_4669)">
<path d="M39.1926 30H34.1679C32.7861 30 31.6555 31.125 31.6555 32.5V40C31.6555 41.375 32.7861 42.5 34.1679 42.5H39.1926C40.5744 42.5 41.7049 41.375 41.7049 40V32.5C41.7049 31.125 40.5744 30 39.1926 30Z" fill="white"/>
<path d="M24.1185 17.5H19.0938C17.712 17.5 16.5815 18.625 16.5815 20V27.5C16.5815 28.875 17.712 30 19.0938 30H24.1185C25.5003 30 26.6309 28.875 26.6309 27.5V20C26.6309 18.625 25.5003 17.5 24.1185 17.5Z" fill="white"/>
<path d="M39.1926 17.5H34.1679C32.7861 17.5 31.6555 18.625 31.6555 20V22.5C31.6555 23.875 32.7861 25 34.1679 25H39.1926C40.5744 25 41.7049 23.875 41.7049 22.5V20C41.7049 18.625 40.5744 17.5 39.1926 17.5Z" fill="white"/>
<path d="M24.1185 35H19.0938C17.712 35 16.5815 36.125 16.5815 37.5V40C16.5815 41.375 17.712 42.5 19.0938 42.5H24.1185C25.5003 42.5 26.6309 41.375 26.6309 40V37.5C26.6309 36.125 25.5003 35 24.1185 35Z" fill="white"/>
</g>
</g>
<defs>
<filter id="filter0_d_3_4669" x="14.5815" y="17.5" width="33.1234" height="33" filterUnits="userSpaceOnUse" color-interpolation-filters="sRGB">
<feFlood flood-opacity="0" result="BackgroundImageFix"/>
<feColorMatrix in="SourceAlpha" type="matrix" values="0 0 0 0 0 0 0 0 0 0 0 0 0 0 0 0 0 0 127 0" result="hardAlpha"/>
<feOffset dx="2" dy="4"/>
<feGaussianBlur stdDeviation="2"/>
<feColorMatrix type="matrix" values="0 0 0 0 0.270588 0 0 0 0 0.345098 0 0 0 0 0.501961 0 0 0 0.2 0"/>
<feBlend mode="normal" in2="BackgroundImageFix" result="effect1_dropShadow_3_4669"/>
<feBlend mode="normal" in="SourceGraphic" in2="effect1_dropShadow_3_4669" result="shape"/>
</filter>
<clipPath id="clip0_3_4669">
<rect width="30.1481" height="30" fill="white" transform="translate(14.0691 15)"/>
</clipPath>
</defs>
</svg>
