<svg width="59" height="58" viewBox="0 0 59 58" fill="none" xmlns="http://www.w3.org/2000/svg">
<rect width="58.2864" height="58" rx="4" fill="#B5F2E3"/>
<g filter="url(#filter0_d_3_4682)">
<path d="M34.9232 23.6687C37.8355 23.6687 40.1975 21.2812 40.1975 18.3375C40.1975 15.3938 37.8355 13 34.9232 13H24.3682C21.4559 13 19.0938 15.3875 19.0938 18.3313C19.0938 21.275 21.4559 23.6625 24.3682 23.6625C21.4559 23.6688 19.0938 26.0562 19.0938 29C19.0938 31.9438 21.4559 34.3312 24.3682 34.3312C21.4559 34.3312 19.0938 36.7188 19.0938 39.6688C19.0938 42.6188 21.4559 45 24.3682 45C27.2806 45 29.6426 42.6125 29.6426 39.6688V23.6687H34.9232ZM34.9232 23.6687C32.0108 23.6687 29.6488 26.0562 29.6488 29C29.6488 31.9438 32.0108 34.3312 34.9232 34.3312C37.8355 34.3312 40.1975 31.9438 40.1975 29C40.1975 26.0562 37.8355 23.6687 34.9232 23.6687Z" fill="white"/>
</g>
<defs>
<filter id="filter0_d_3_4682" x="17.0938" y="13" width="29.1037" height="40" filterUnits="userSpaceOnUse" color-interpolation-filters="sRGB">
<feFlood flood-opacity="0" result="BackgroundImageFix"/>
<feColorMatrix in="SourceAlpha" type="matrix" values="0 0 0 0 0 0 0 0 0 0 0 0 0 0 0 0 0 0 127 0" result="hardAlpha"/>
<feOffset dx="2" dy="4"/>
<feGaussianBlur stdDeviation="2"/>
<feColorMatrix type="matrix" values="0 0 0 0 0.270588 0 0 0 0 0.345098 0 0 0 0 0.501961 0 0 0 0.2 0"/>
<feBlend mode="normal" in2="BackgroundImageFix" result="effect1_dropShadow_3_4682"/>
<feBlend mode="normal" in="SourceGraphic" in2="effect1_dropShadow_3_4682" result="shape"/>
</filter>
</defs>
</svg>
