<svg width="81" height="33" viewBox="0 0 81 33" fill="none" xmlns="http://www.w3.org/2000/svg">
<path d="M10.9275 20.2951V0.554443H14.9482V23.7716H11.3205L10.9275 20.2951ZM0.422363 15.7907V15.4733C0.422363 14.2237 0.56344 13.0901 0.845593 12.0723C1.13782 11.0445 1.56105 10.1628 2.11528 9.42715C2.66951 8.69153 3.33962 8.12219 4.12562 7.71911C4.9217 7.31604 5.82358 7.1145 6.83127 7.1145C7.80872 7.1145 8.66022 7.311 9.38576 7.704C10.1214 8.097 10.7461 8.65626 11.2601 9.3818C11.7841 10.1073 12.2022 10.9689 12.5146 11.9665C12.827 12.9541 13.0537 14.0424 13.1948 15.2314V16.093C13.0537 17.2519 12.827 18.315 12.5146 19.2823C12.2022 20.2497 11.7841 21.0962 11.2601 21.8217C10.7461 22.5372 10.1214 23.0914 9.38576 23.4844C8.65015 23.8774 7.78857 24.0739 6.80104 24.0739C5.80342 24.0739 4.90658 23.8673 4.11051 23.4542C3.32451 23.041 2.65439 22.4616 2.10017 21.7159C1.55601 20.9702 1.13782 20.0935 0.845593 19.0858C0.56344 18.0782 0.422363 16.9798 0.422363 15.7907ZM4.42793 15.4733V15.7907C4.42793 16.4961 4.48839 17.1561 4.60931 17.7708C4.73023 18.3855 4.92673 18.9297 5.19881 19.4033C5.47089 19.8668 5.81854 20.2296 6.24177 20.4916C6.67507 20.7536 7.19907 20.8846 7.81376 20.8846C8.59976 20.8846 9.24468 20.7133 9.74853 20.3707C10.2624 20.018 10.6605 19.5393 10.9426 18.9347C11.2248 18.32 11.4062 17.6297 11.4868 16.8639V14.4908C11.4465 13.8862 11.3407 13.3269 11.1694 12.813C11.0081 12.2991 10.7764 11.8557 10.4741 11.4828C10.1818 11.11 9.81906 10.8178 9.38576 10.6061C8.95245 10.3945 8.43853 10.2887 7.84399 10.2887C7.2293 10.2887 6.70531 10.4248 6.272 10.6968C5.83869 10.9588 5.486 11.3266 5.21393 11.8003C4.94185 12.2739 4.74031 12.8231 4.60931 13.4478C4.48839 14.0726 4.42793 14.7477 4.42793 15.4733ZM22.7931 7.41681V23.7716H18.7875V7.41681H22.7931ZM18.5154 3.13917C18.5154 2.54463 18.717 2.05086 19.12 1.65786C19.5332 1.26486 20.0874 1.06836 20.7827 1.06836C21.478 1.06836 22.0272 1.26486 22.4303 1.65786C22.8434 2.05086 23.05 2.54463 23.05 3.13917C23.05 3.72363 22.8434 4.21236 22.4303 4.60535C22.0272 4.99835 21.478 5.19485 20.7827 5.19485C20.0874 5.19485 19.5332 4.99835 19.12 4.60535C18.717 4.21236 18.5154 3.72363 18.5154 3.13917ZM37.0015 7.41681H40.6292V23.2728C40.6292 24.7541 40.3067 26.0087 39.6618 27.0365C39.0269 28.0744 38.1351 28.8604 36.9864 29.3945C35.8376 29.9387 34.5024 30.2107 32.9808 30.2107C32.3258 30.2107 31.6154 30.12 30.8495 29.9387C30.0938 29.7573 29.3632 29.4701 28.6578 29.0771C27.9625 28.6942 27.3831 28.1954 26.9195 27.5807L28.7183 25.2227C29.2624 25.8575 29.8771 26.3362 30.5623 26.6586C31.2476 26.9912 31.9882 27.1574 32.7843 27.1574C33.5905 27.1574 34.2757 27.0063 34.84 26.704C35.4144 26.4117 35.8527 25.9784 36.155 25.4041C36.4674 24.8398 36.6236 24.1444 36.6236 23.3181V11.1503L37.0015 7.41681ZM25.9522 15.7907V15.4733C25.9522 14.2237 26.1033 13.0901 26.4056 12.0723C26.7079 11.0445 27.1412 10.1628 27.7055 9.42715C28.2799 8.69153 28.9702 8.12219 29.7763 7.71911C30.5926 7.31604 31.5096 7.1145 32.5273 7.1145C33.6056 7.1145 34.5125 7.311 35.2481 7.704C35.9938 8.097 36.6085 8.65626 37.0922 9.3818C37.5859 10.1073 37.9689 10.9689 38.2409 11.9665C38.5231 12.9541 38.7397 14.0424 38.8909 15.2314V16.093C38.7498 17.2519 38.5231 18.315 38.2107 19.2823C37.9084 20.2497 37.5053 21.0962 37.0015 21.8217C36.4976 22.5372 35.8729 23.0914 35.1272 23.4844C34.3815 23.8774 33.5048 24.0739 32.4971 24.0739C31.4894 24.0739 30.5825 23.8673 29.7763 23.4542C28.9702 23.041 28.2799 22.4616 27.7055 21.7159C27.1412 20.9702 26.7079 20.0935 26.4056 19.0858C26.1033 18.0782 25.9522 16.9798 25.9522 15.7907ZM29.9426 15.4733V15.7907C29.9426 16.4961 30.0132 17.1561 30.1542 17.7708C30.2953 18.3855 30.512 18.9297 30.8042 19.4033C31.0964 19.8668 31.4642 20.2296 31.9076 20.4916C32.351 20.7536 32.88 20.8846 33.4947 20.8846C34.321 20.8846 34.9962 20.7133 35.5202 20.3707C36.0543 20.018 36.4573 19.5393 36.7294 18.9347C37.0116 18.32 37.1929 17.6297 37.2736 16.8639V14.4908C37.2232 13.8862 37.1123 13.3269 36.941 12.813C36.7798 12.2991 36.5531 11.8557 36.2608 11.4828C35.9686 11.11 35.5958 10.8178 35.1423 10.6061C34.6888 10.3945 34.1497 10.2887 33.525 10.2887C32.9203 10.2887 32.3913 10.4248 31.9378 10.6968C31.4844 10.9588 31.1115 11.3266 30.8193 11.8003C30.5271 12.2739 30.3054 12.8231 30.1542 13.4478C30.0132 14.0726 29.9426 14.7477 29.9426 15.4733ZM48.4589 7.41681V23.7716H44.4533V7.41681H48.4589ZM44.1813 3.13917C44.1813 2.54463 44.3828 2.05086 44.7859 1.65786C45.199 1.26486 45.7533 1.06836 46.4486 1.06836C47.1439 1.06836 47.6931 1.26486 48.0961 1.65786C48.5093 2.05086 48.7159 2.54463 48.7159 3.13917C48.7159 3.72363 48.5093 4.21236 48.0961 4.60535C47.6931 4.99835 47.1439 5.19485 46.4486 5.19485C45.7533 5.19485 45.199 4.99835 44.7859 4.60535C44.3828 4.21236 44.1813 3.72363 44.1813 3.13917ZM60.007 7.41681V10.2887H50.6355V7.41681H60.007ZM53.1447 3.39613H57.1502V19.0556C57.1502 19.5393 57.2157 19.9122 57.3467 20.1742C57.4777 20.4361 57.6742 20.6125 57.9362 20.7032C58.1982 20.7939 58.5106 20.8392 58.8734 20.8392C59.1354 20.8392 59.3772 20.8241 59.5989 20.7939C59.8206 20.7636 60.007 20.7334 60.1582 20.7032L60.1733 23.696C59.8408 23.8069 59.4629 23.8976 59.0396 23.9681C58.6265 24.0386 58.1579 24.0739 57.6339 24.0739C56.7371 24.0739 55.9511 23.9228 55.2759 23.6204C54.6008 23.3081 54.0768 22.8093 53.7039 22.124C53.3311 21.4287 53.1447 20.5117 53.1447 19.373V3.39613ZM71.6609 19.2975C71.6609 18.9548 71.5703 18.6475 71.3889 18.3754C71.2075 18.1033 70.8649 17.8565 70.361 17.6348C69.8673 17.403 69.1417 17.1864 68.1844 16.9848C67.338 16.8034 66.557 16.5767 65.8415 16.3046C65.1261 16.0325 64.5114 15.7051 63.9975 15.3221C63.4836 14.9291 63.0805 14.4706 62.7882 13.9466C62.5061 13.4126 62.365 12.7979 62.365 12.1026C62.365 11.4274 62.5111 10.7926 62.8034 10.198C63.0956 9.59342 63.5188 9.06438 64.0731 8.61092C64.6273 8.14738 65.3024 7.78461 66.0985 7.52261C66.8946 7.25054 67.7914 7.1145 68.789 7.1145C70.1797 7.1145 71.3738 7.34123 72.3714 7.79469C73.3791 8.24815 74.1499 8.87292 74.684 9.66899C75.2181 10.455 75.4851 11.3418 75.4851 12.3293H71.4947C71.4947 11.896 71.3939 11.503 71.1924 11.1503C71.0009 10.7976 70.7036 10.5155 70.3006 10.3038C69.8975 10.0821 69.3886 9.9713 68.7739 9.9713C68.2197 9.9713 67.7511 10.062 67.3682 10.2434C66.9953 10.4248 66.7132 10.6616 66.5217 10.9538C66.3303 11.246 66.2345 11.5685 66.2345 11.9212C66.2345 12.1832 66.2849 12.42 66.3857 12.6316C66.4965 12.8331 66.6729 13.0196 66.9147 13.1909C67.1566 13.3622 67.4841 13.5184 67.8972 13.6594C68.3205 13.8005 68.8394 13.9366 69.4541 14.0676C70.6734 14.3094 71.7365 14.6319 72.6434 15.0349C73.5604 15.4279 74.2759 15.9519 74.7898 16.6069C75.3037 17.2619 75.5607 18.0983 75.5607 19.1161C75.5607 19.8416 75.4045 20.5067 75.0921 21.1113C74.7797 21.7058 74.3263 22.2248 73.7318 22.6682C73.1372 23.1116 72.4268 23.4592 71.6005 23.7111C70.7742 23.953 69.8421 24.0739 68.8042 24.0739C67.3027 24.0739 66.033 23.8069 64.9951 23.2728C63.9572 22.7286 63.1712 22.0434 62.6371 21.2171C62.103 20.3807 61.836 19.5141 61.836 18.6173H65.6602C65.6904 19.2521 65.8617 19.761 66.1741 20.1439C66.4865 20.5268 66.8795 20.804 67.3531 20.9753C67.8368 21.1365 68.3457 21.2171 68.8797 21.2171C69.4843 21.2171 69.9932 21.1365 70.4064 20.9753C70.8195 20.804 71.1319 20.5772 71.3435 20.2951C71.5551 20.0028 71.6609 19.6703 71.6609 19.2975Z" fill="#1E266D"/>
<path d="M78.4605 25.4084C79.8481 25.4084 80.9729 24.2836 80.9729 22.896C80.9729 21.5084 79.8481 20.3835 78.4605 20.3835C77.0729 20.3835 75.9481 21.5084 75.9481 22.896C75.9481 24.2836 77.0729 25.4084 78.4605 25.4084Z" fill="#FF2E6A"/>
<path d="M78.4605 15.3586C79.8481 15.3586 80.9729 14.2337 80.9729 12.8462C80.9729 11.4586 79.8481 10.3337 78.4605 10.3337C77.0729 10.3337 75.9481 11.4586 75.9481 12.8462C75.9481 14.2337 77.0729 15.3586 78.4605 15.3586Z" fill="#FF2E6A"/>
</svg>
